<?xml version="1.0" encoding="UTF-8" standalone="no"?>
<svg
   viewBox="0 0 12.370767 20.96477"
   enable-background="new 0 0 64 64"
   version="1.1"
   id="svg1"
   sodipodi:docname="sbf_mixer_logo.svg"
   inkscape:version="1.4 (e7c3feb100, 2024-10-09)"
   width="12.370767"
   height="20.964769"
   xmlns:inkscape="http://www.inkscape.org/namespaces/inkscape"
   xmlns:sodipodi="http://sodipodi.sourceforge.net/DTD/sodipodi-0.dtd"
   xmlns="http://www.w3.org/2000/svg"
   xmlns:svg="http://www.w3.org/2000/svg">
  <defs
     id="defs1">
    <inkscape:path-effect
       effect="fillet_chamfer"
       id="path-effect12"
       is_visible="true"
       lpeversion="1"
       nodesatellites_param="F,0,0,1,0,0.1,0,1 @ F,0,0,1,0,0.1,0,1 @ F,0,0,1,0,0.1,0,1 @ F,0,0,1,0,0.1,0,1 @ F,0,0,1,0,0.1,0,1 @ F,0,0,1,0,0.1,0,1 @ F,0,0,1,0,0.1,0,1 @ F,0,0,1,0,0.1,0,1 @ F,0,0,1,0,0.1,0,1 @ F,0,0,1,0,0.1,0,1"
       radius="0.1"
       unit="px"
       method="auto"
       mode="F"
       chamfer_steps="1"
       flexible="false"
       use_knot_distance="true"
       apply_no_radius="true"
       apply_with_radius="true"
       only_selected="true"
       hide_knots="false" />
    <inkscape:path-effect
       effect="fillet_chamfer"
       id="path-effect10"
       is_visible="true"
       lpeversion="1"
       nodesatellites_param="F,0,0,1,0,0.1,0,1 @ F,0,0,1,0,0.1,0,1 @ F,0,0,1,0,0.1,0,1 @ F,0,0,1,0,0.1,0,1 @ F,0,0,1,0,0.1,0,1 @ F,0,0,1,0,0.1,0,1 @ F,0,0,1,0,0.1,0,1 @ F,0,0,1,0,0.1,0,1 @ F,0,0,1,0,0.1,0,1 @ F,0,0,1,0,0.1,0,1 @ F,0,0,1,0,0.1,0,1 @ F,0,0,1,0,0.1,0,1 @ F,0,0,1,0,0.1,0,1 @ F,0,0,1,0,0.1,0,1 @ F,0,0,1,0,0.1,0,1"
       radius="0.1"
       unit="px"
       method="auto"
       mode="F"
       chamfer_steps="1"
       flexible="false"
       use_knot_distance="true"
       apply_no_radius="true"
       apply_with_radius="true"
       only_selected="true"
       hide_knots="false" />
    <inkscape:path-effect
       effect="fillet_chamfer"
       id="path-effect7"
       is_visible="true"
       lpeversion="1"
       nodesatellites_param="F,0,0,1,0,0.1,0,1 @ F,0,0,1,0,0.1,0,1 @ F,0,0,1,0,0.1,0,1 @ F,0,0,1,0,0.1,0,1 @ F,0,0,1,0,0.1,0,1 @ F,0,0,1,0,0.1,0,1 @ F,0,0,1,0,0.1,0,1 @ F,0,0,1,0,0.1,0,1 @ F,0,0,1,0,0.1,0,1 @ F,0,0,1,0,0.1,0,1"
       radius="0.1"
       unit="px"
       method="auto"
       mode="F"
       chamfer_steps="1"
       flexible="false"
       use_knot_distance="true"
       apply_no_radius="true"
       apply_with_radius="true"
       only_selected="true"
       hide_knots="false" />
    <inkscape:path-effect
       effect="fillet_chamfer"
       id="path-effect5"
       is_visible="true"
       lpeversion="1"
       nodesatellites_param="F,0,1,1,0,0.1,0,1 @ F,0,1,1,0,0.1,0,1 @ F,0,0,1,0,0.1,0,1 @ F,0,0,1,0,0.1,0,1 @ F,0,0,1,0,0.1,0,1 @ F,0,0,1,0,0.1,0,1 @ F,0,0,1,0,0.1,0,1 @ F,0,0,1,0,0.1,0,1 @ F,0,0,1,0,0.1,0,1 @ F,0,0,1,0,0.1,0,1 @ F,0,0,1,0,0.1,0,1 @ F,0,0,1,0,0.1,0,1 @ F,0,0,1,0,0.1,0,1 @ F,0,0,1,0,0.1,0,1 @ F,0,0,1,0,0.1,0,1 @ F,0,0,1,0,0.1,0,1 @ F,0,0,1,0,0.1,0,1 @ F,0,0,1,0,0.1,0,1 @ F,0,0,1,0,0.1,0,1 @ F,0,0,1,0,0.1,0,1 @ F,0,0,1,0,0.1,0,1 @ F,0,0,1,0,0.1,0,1 @ F,0,0,1,0,0.1,0,1 @ F,0,0,1,0,0.1,0,1 @ F,0,0,1,0,0.1,0,1 @ F,0,0,1,0,0.1,0,1 @ F,0,0,1,0,0.1,0,1 @ F,0,0,1,0,0.1,0,1 @ F,0,1,1,0,0.1,0,1 @ F,0,1,1,0,0.1,0,1 @ F,0,1,1,0,0.1,0,1"
       radius="0.1"
       unit="px"
       method="auto"
       mode="F"
       chamfer_steps="1"
       flexible="false"
       use_knot_distance="true"
       apply_no_radius="true"
       apply_with_radius="true"
       only_selected="true"
       hide_knots="false" />
    <inkscape:path-effect
       effect="fillet_chamfer"
       id="path-effect1"
       is_visible="true"
       lpeversion="1"
       nodesatellites_param="F,0,0,1,0,0.1,0,1 @ F,0,0,1,0,0.1,0,1 @ F,0,0,1,0,0.1,0,1 @ F,0,0,1,0,0.1,0,1 @ F,0,0,1,0,0.1,0,1 @ F,0,0,1,0,0.1,0,1 @ F,0,0,1,0,0.1,0,1 @ F,0,0,1,0,0.1,0,1 @ F,0,0,1,0,0.1,0,1 @ F,0,0,1,0,0.1,0,1 @ F,0,0,1,0,0.1,0,1 @ F,0,0,1,0,0.1,0,1 @ F,0,0,1,0,0.1,0,1 @ F,0,0,1,0,0.1,0,1 @ F,0,0,1,0,0.1,0,1"
       radius="0.1"
       unit="px"
       method="auto"
       mode="F"
       chamfer_steps="1"
       flexible="false"
       use_knot_distance="true"
       apply_no_radius="true"
       apply_with_radius="true"
       only_selected="true"
       hide_knots="false" />
    <inkscape:path-effect
       effect="fillet_chamfer"
       id="path-effect9"
       is_visible="true"
       lpeversion="1"
       nodesatellites_param="F,0,0,1,0,0,0,1 @ F,0,0,1,0,0,0,1 @ F,0,0,1,0,1.1368512,0,1 @ F,0,0,1,0,0.46031884,0,1 @ F,0,0,1,0,0,0,1 @ F,0,0,1,0,0,0,1 @ F,0,0,1,0,0,0,1 @ F,0,0,1,0,0.50533293,0,1 @ F,0,0,1,0,1.1795623,0,1 @ F,0,0,1,0,0.50614921,0,1 @ F,0,0,1,0,0,0,1 @ F,0,0,1,0,0,0,1 @ F,0,0,1,0,0,0,1"
       radius="0"
       unit="px"
       method="auto"
       mode="F"
       chamfer_steps="1"
       flexible="false"
       use_knot_distance="true"
       apply_no_radius="true"
       apply_with_radius="true"
       only_selected="false"
       hide_knots="false" />
    <inkscape:path-effect
       effect="fillet_chamfer"
       id="path-effect4"
       is_visible="true"
       lpeversion="1"
       nodesatellites_param="F,0,0,1,0,0,0,1 @ F,0,0,1,0,0,0,1 @ F,0,0,1,0,0,0,1 @ F,0,0,1,0,0,0,1 @ F,0,0,1,0,0,0,1 @ F,0,0,1,0,0,0,1 @ F,0,0,1,0,0,0,1"
       radius="0"
       unit="px"
       method="auto"
       mode="F"
       chamfer_steps="1"
       flexible="false"
       use_knot_distance="true"
       apply_no_radius="true"
       apply_with_radius="true"
       only_selected="false"
       hide_knots="false" />
    <inkscape:path-effect
       effect="fillet_chamfer"
       id="path-effect2"
       is_visible="true"
       lpeversion="1"
       nodesatellites_param="F,0,0,1,0,0,0,1 @ F,0,0,1,0,0,0,1 @ F,0,0,1,0,0,0,1 @ F,0,0,1,0,0,0,1 @ F,0,0,1,0,0,0,1 @ F,0,0,1,0,0,0,1 @ F,0,0,1,0,0,0,1 @ F,0,0,1,0,0,0,1 @ F,0,0,1,0,0,0,1 @ F,0,0,1,0,0,0,1 @ F,0,0,1,0,0,0,1 @ F,0,0,1,0,0,0,1 @ F,0,0,1,0,0,0,1 @ F,0,0,1,0,0,0,1"
       radius="0"
       unit="px"
       method="auto"
       mode="F"
       chamfer_steps="1"
       flexible="false"
       use_knot_distance="true"
       apply_no_radius="true"
       apply_with_radius="true"
       only_selected="false"
       hide_knots="false" />
    <inkscape:path-effect
       effect="fillet_chamfer"
       id="path-effect13"
       is_visible="true"
       lpeversion="1"
       nodesatellites_param="F,0,0,1,0,0,0,1 @ F,0,0,1,0,0,0,1 @ F,0,0,1,0,0,0,1 @ F,0,0,1,0,0,0,1 @ F,0,0,1,0,0,0,1 @ F,0,0,1,0,0,0,1 @ F,0,0,1,0,0,0,1 @ F,0,0,1,0,0,0,1 | F,0,0,1,0,0,0,1 @ F,0,0,1,0,0,0,1 @ F,0,0,1,0,0,0,1 @ F,0,0,1,0,0,0,1 @ F,0,0,1,0,0,0,1 @ F,0,0,1,0,0,0,1 @ F,0,0,1,0,0,0,1"
       radius="0"
       unit="px"
       method="auto"
       mode="F"
       chamfer_steps="1"
       flexible="false"
       use_knot_distance="true"
       apply_no_radius="true"
       apply_with_radius="true"
       only_selected="false"
       hide_knots="false" />
  </defs>
  <sodipodi:namedview
     id="namedview1"
     pagecolor="#ffffff"
     bordercolor="#000000"
     borderopacity="0.25"
     inkscape:showpageshadow="2"
     inkscape:pageopacity="0.0"
     inkscape:pagecheckerboard="0"
     inkscape:deskcolor="#d1d1d1"
     inkscape:zoom="16"
     inkscape:cx="21.21875"
     inkscape:cy="9.03125"
     inkscape:window-width="1920"
     inkscape:window-height="1030"
     inkscape:window-x="0"
     inkscape:window-y="0"
     inkscape:window-maximized="1"
     inkscape:current-layer="svg1" />
  <path
     style="fill:#ff9210;fill-opacity:1;stroke:none;stroke-width:0.0564629;stroke-dasharray:none;stroke-opacity:1"
     inkscape:path-effect="#path-effect12"
     inkscape:original-d="m 12.345307,25.129536 c -0.01315,-2.27e-4 -0.03035,0.0037 -0.05073,0.01103 -0.112339,0.04039 -0.536299,0.139588 -0.941783,0.219455 -0.405478,0.07987 -1.342675,0.19541 -2.0820688,0.256951 -1.3443528,0.11189 -1.3441942,0.112183 -0.6440296,1.353123 0.3850898,0.682518 0.8402545,1.472979 1.0112591,1.757849 0.1710018,0.284867 0.3439984,0.518311 0.3837713,0.518311 0.03977,0 0.38588,-0.543962 0.769748,-1.208658 0.383864,-0.664697 0.925662,-1.604193 1.203144,-2.088686 0.352239,-0.615016 0.44275,-0.817787 0.350688,-0.819373 z"
     d="m 12.294577,25.140566 c -0.255636,0.07268 -0.548154,0.139869 -0.844823,0.200066 -0.05352,0.01086 -0.140889,0.02806 -0.195278,0.03765 -0.423337,0.07465 -1.218196,0.171876 -1.8843804,0.230206 -0.054871,0.0048 -0.1439889,0.01219 -0.199024,0.01681 -1.2137465,0.101828 -1.2268894,0.133763 -0.5933445,1.257983 0.027028,0.04796 0.070966,0.125819 0.098145,0.173897 0.3397487,0.600983 0.7212337,1.264084 0.9109478,1.584869 0.028106,0.04753 0.074099,0.124345 0.1033323,0.171202 0.1000246,0.160327 0.1959695,0.296432 0.260294,0.37124 0.033964,0.0395 0.1055577,0.0327 0.1380627,-0.01123 0.118947,-0.160747 0.374118,-0.569807 0.656077,-1.054735 0.02596,-0.04465 0.06928,-0.119687 0.09689,-0.167515 0.357138,-0.618522 0.827733,-1.434626 1.103412,-1.915327 0.02747,-0.04791 0.072,-0.125598 0.09928,-0.173616 0.200086,-0.352123 0.3036,-0.553709 0.32868,-0.653128 0.01135,-0.045 -0.02755,-0.07939 -0.02755,-0.07939 z"
     id="path10"
     sodipodi:nodetypes="scsssssssss"
     transform="translate(-3.86309,-8.2457432)" />
  <path
     style="fill:#ff9210;fill-opacity:1;stroke:none;stroke-width:0.0564629;stroke-dasharray:none;stroke-opacity:1"
     inkscape:path-effect="#path-effect10"
     inkscape:original-d="m 4.4691772,18.003303 c -0.014457,8.9e-5 -0.022056,0.0019 -0.022056,0.0066 0,0.03793 0.1694751,0.528132 0.3771546,1.089557 0.2076795,0.561425 0.6162691,1.55445 0.9075967,2.205581 0.2913247,0.651128 0.5980909,1.306631 0.6815244,1.457889 0.1508095,0.273413 0.1563101,0.275238 0.9638391,0.218353 0.4467462,-0.03147 1.2861002,-0.102428 1.8659214,-0.157699 0.5798201,-0.05527 1.4880196,-0.184538 2.0181066,-0.286725 0.53009,-0.102189 1.182642,-0.281529 1.45017,-0.399211 0.26753,-0.117681 0.605306,-0.34537 0.749897,-0.506181 0.144595,-0.16081 0.262464,-0.394139 0.262464,-0.518311 0,-0.124173 -0.09355,-0.337526 -0.208427,-0.4742 -0.114879,-0.13667 -0.400006,-0.319689 -0.633002,-0.40693 C 12.649373,20.1448 11.142217,19.741241 9.5331913,19.335475 7.9241659,18.929708 6.1221731,18.449547 5.5278562,18.269076 5.0078291,18.111166 4.5703762,18.002682 4.4691772,18.003303 Z"
     d="m 4.4471212,18.009903 c 0.07785,0.259825 0.1989819,0.605144 0.3429938,0.996918 0.018814,0.05118 0.049677,0.134637 0.069162,0.186314 0.2056241,0.545344 0.5604741,1.407353 0.8319632,2.020596 0.022344,0.05047 0.05891,0.132181 0.081545,0.182558 0.2390071,0.531936 0.4808801,1.050904 0.5950103,1.278689 0.02451,0.04892 0.066274,0.127736 0.095135,0.174825 0.108554,0.177114 0.1947161,0.181552 0.8152436,0.138424 0.054712,-0.0038 0.1437231,-0.01008 0.1988023,-0.01414 0.4357812,-0.03211 1.1363799,-0.09141 1.666631,-0.141095 0.054984,-0.0052 0.1441224,-0.01363 0.1990608,-0.01928 0.543578,-0.05592 1.3136976,-0.165419 1.8204096,-0.258399 0.05427,-0.01 0.142159,-0.02688 0.196267,-0.03794 0.455403,-0.09313 0.975179,-0.234562 1.260158,-0.342463 0.05123,-0.0194 0.132996,-0.05516 0.1824,-0.07984 0.210426,-0.105094 0.444198,-0.261407 0.589255,-0.393694 0.04042,-0.03686 0.100395,-0.103064 0.133601,-0.147175 0.08407,-0.111683 0.152301,-0.240987 0.182397,-0.343476 0.0154,-0.05245 0.01592,-0.142888 0.0024,-0.196314 -0.02332,-0.09244 -0.0734,-0.202535 -0.135371,-0.296197 -0.03008,-0.04547 -0.08793,-0.113559 -0.129014,-0.1504 -0.116723,-0.104652 -0.300018,-0.220677 -0.471471,-0.297959 -0.04979,-0.02244 -0.133528,-0.05295 -0.186242,-0.06941 C 12.382278,20.073898 11.055576,19.72025 9.629875,19.359885 9.5764817,19.346389 9.4897782,19.32453 9.4362343,19.310993 7.9313768,18.930543 6.283558,18.492095 5.6234349,18.297626 5.5705891,18.282057 5.4850243,18.256039 5.4320939,18.240274 5.0561243,18.128291 4.7338334,18.045317 4.5675706,18.015429 c -0.053889,-0.0097 -0.1331643,-0.0055 -0.1204494,-0.0055 z"
     id="path7"
     sodipodi:nodetypes="sssssssssssscsss"
     transform="translate(-3.86309,-8.2457432)" />
  <path
     style="fill:#ff9210;fill-opacity:1;stroke:none;stroke-width:0.0564629;stroke-dasharray:none;stroke-opacity:1"
     inkscape:path-effect="#path-effect7"
     inkscape:original-d="m 15.613978,11.701958 c -0.183264,0.0091 -1.599567,0.691552 -3.532276,1.24505 -1.423724,0.447676 -1.205332,2.923389 -0.151082,3.263158 1.671541,0.451411 3.775908,1.178803 3.81459,1.185499 0.03868,0.0067 0.120575,-0.21146 0.183064,-0.484125 0.06249,-0.272667 0.167249,-0.816629 0.232688,-1.208658 0.06543,-0.392032 0.09178,-1.0785 0.05845,-1.526262 -0.03333,-0.44776 -0.159741,-1.15901 -0.281212,-1.580299 -0.121471,-0.421288 -0.257168,-0.820175 -0.301062,-0.886644 -0.0037,-0.0056 -0.01094,-0.0083 -0.02316,-0.0077 z"
     d="m 15.517101,11.725905 c -0.380593,0.12391 -1.656558,0.703614 -3.340807,1.193793 -0.05221,0.0152 -0.137496,0.04037 -0.188795,0.06079 -1.278515,0.509022 -1.100087,2.753019 -0.149915,3.19324 0.05007,0.0232 0.136263,0.04809 0.189534,0.06267 1.457442,0.398754 3.202148,0.989198 3.623646,1.128902 0.05201,0.01724 0.130304,0.0018 0.152288,-0.04665 0.03145,-0.0693 0.06801,-0.179952 0.101555,-0.309894 0.01381,-0.05351 0.03367,-0.14086 0.04536,-0.194838 0.05728,-0.264526 0.136501,-0.677061 0.194273,-1.012477 0.0094,-0.05441 0.02416,-0.142722 0.03159,-0.197447 0.05016,-0.369768 0.07097,-0.921216 0.04982,-1.328021 -0.0029,-0.05491 -0.0095,-0.144014 -0.01475,-0.198991 -0.03948,-0.413102 -0.142048,-0.99039 -0.246213,-1.384591 -0.01406,-0.05321 -0.03885,-0.139102 -0.05451,-0.192064 -0.08634,-0.291995 -0.1757,-0.561295 -0.231427,-0.700737 -0.02031,-0.05081 -0.07824,-0.09762 -0.06476,-0.09762 l 0,-1.9e-5 z"
     id="path5"
     sodipodi:nodetypes="cccsscssscc"
     transform="translate(-3.86309,-8.2457432)" />
  <path
     style="fill:#000000;fill-opacity:1;stroke:none;stroke-width:0.0564629;stroke-dasharray:none;stroke-opacity:1"
     inkscape:path-effect="#path-effect5"
     inkscape:original-d="m 10.78688,10.490049 0.178859,0.65849 -0.54299,0.274687 -1.9758064,3.100773 C 8.3376988,14.331441 8.2300445,14.1396 8.1271335,13.952753 7.714657,13.152871 7.3983209,12.923743 7.0408846,12.942597 h -0.00331 l -3.0712716,0.02205 -0.1124848,1.154622 3.065758,-0.02205 c 0.043135,0.0053 0.2024387,0.163585 0.3176037,0.389285 0.1794078,0.326129 0.3571817,0.651847 0.5458812,0.970456 l -0.3142955,0.442219 c 0,0 -0.3033065,0.468366 -0.5150028,0.479714 -0.9325934,0.04999 -2.9036475,0.0088 -2.9036475,0.0088 l 0.2624638,1.154622 2.966507,-0.02867 c 0,0 0.098244,-0.06248 0.6771128,-0.679319 0.1045708,-0.11143 0.2345259,-0.308899 0.389285,-0.527133 0.07552,0.09985 0.1528348,0.198632 0.2348946,0.294445 0.7921939,0.924965 2.2454675,1.644248 2.2454675,1.644248 l -0.192164,0.662046 1.734782,-0.745846 -1.056473,-1.623307 -0.204016,0.684833 c 0,0 -1.3298586,-0.736876 -1.8008578,-1.354227 -0.1150978,-0.150862 -0.2263455,-0.310442 -0.334145,-0.4742 0.8657001,-1.28519 1.8085578,-3.018004 1.8085578,-3.018004 l 0.428193,-0.207254 0.182717,0.644951 1.068107,-1.740041 z"
     d="m 10.813092,10.586552 0.126435,0.465484 a 0.12269477,0.12269477 113.98504 0 1 -0.06302,0.141644 l -0.364526,0.184405 a 0.36477636,0.36477636 137.83567 0 0 -0.14297,0.129475 l -1.8683308,2.932105 c -0.029678,0.04658 -0.075838,0.0454 -0.1030196,-0.0027 -0.075403,-0.133365 -0.149812,-0.266074 -0.2221744,-0.3967 -0.026763,-0.04831 -0.068786,-0.127373 -0.094857,-0.176061 -0.3518675,-0.657126 -0.6352228,-0.893466 -0.9398128,-0.920094 -0.054988,-0.0048 -0.1014139,-0.0015 -0.103242,-0.0015 l -2.9712742,0.02133 a 0.11101374,0.11101374 137.57646 0 0 -0.1096936,0.100247 l -0.093092,0.955564 a 0.09007777,0.09007777 47.576094 0 0 0.090301,0.09881 l 2.8657632,-0.02061 c 0.055227,-3.97e-4 0.1414988,0.01892 0.180925,0.05722 0.05448,0.05293 0.1252339,0.139157 0.1897046,0.246642 0.027515,0.04587 0.068548,0.123932 0.095154,0.17233 0.1470348,0.267463 0.293727,0.534245 0.4470126,0.796648 0.027852,0.04768 0.024749,0.122674 -0.00725,0.167691 L 7.526697,15.817669 c -0.031995,0.04502 -0.082512,0.118951 -0.1149623,0.163624 -0.078987,0.108742 -0.2273543,0.295212 -0.3632981,0.367727 -0.048376,0.0258 -0.1393808,0.0323 -0.194556,0.03472 -0.8315773,0.03646 -2.308951,0.01308 -2.7042116,0.0059 -0.054983,-0.001 -0.08963,0.04175 -0.077388,0.0956 l 0.2181316,0.959598 a 0.12404847,0.12404847 38.319833 0 0 0.1221614,0.09655 l 2.7665164,-0.02674 c 0.055226,-5.33e-4 0.1351436,-0.02871 0.1756362,-0.06614 0.079516,-0.0735 0.2361494,-0.226867 0.53357,-0.541994 0.037559,-0.03979 0.098498,-0.104921 0.1330345,-0.148002 0.077439,-0.0966 0.1664153,-0.226572 0.2667498,-0.369789 0.031588,-0.04509 0.08434,-0.04573 0.1181287,-0.002 0.035984,0.04652 0.072536,0.0927 0.1099609,0.138337 0.03502,0.0427 0.093244,0.110749 0.1303018,0.151698 0.681824,0.753409 1.7742863,1.357369 2.0907983,1.523643 0.0487,0.02558 0.0761,0.08856 0.0607,0.141601 l -0.136414,0.469974 a 0.04721597,0.04721597 41.460575 0 0 0.06399,0.05654 l 1.551044,-0.66685 a 0.08421966,0.08421966 106.83934 0 0 0.03732,-0.123311 l -0.947379,-1.455681 a 0.04625501,0.04625501 171.76621 0 0 -0.0831,0.01202 l -0.146914,0.493157 c -0.01577,0.05293 -0.06764,0.074 -0.115455,0.04638 C 10.732973,17.007694 9.8030461,16.45004 9.3699775,15.946732 9.3340749,15.905006 9.2799063,15.833828 9.2470598,15.789429 9.1725712,15.688743 9.0997031,15.58466 9.0283427,15.478454 c -0.030801,-0.04584 -0.030339,-0.120389 2.877e-4,-0.166348 0.7344272,-1.1021 1.5084206,-2.490909 1.7052556,-2.848084 0.0264,-0.04791 0.08794,-0.106347 0.137655,-0.130408 l 0.248171,-0.12012 a 0.08389466,0.08389466 24.177232 0 1 0.117269,0.05265 l 0.128201,0.452525 a 0.04385624,0.04385624 7.8628254 0 0 0.07957,0.01099 l 0.963479,-1.569591 a 0.08056946,0.08056946 70.401477 0 0 -0.04209,-0.11821 l -1.484861,-0.518818 a 0.05266188,0.05266188 137.03182 0 0 -0.06819,0.06352 z"
     id="path2"
     sodipodi:nodetypes="cccccccccccccscccscscccccscccccc"
     transform="translate(-3.86309,-8.2457432)" />
  <path
     style="fill:#ff9210;fill-opacity:1;stroke:none;stroke-width:0.0564629;stroke-dasharray:none;stroke-opacity:1"
     inkscape:path-effect="#path-effect1"
     inkscape:original-d="M 9.9158594,8.2458124 C 9.4086534,8.2437684 8.9352105,8.2723471 8.6366223,8.326316 8.2746354,8.3917461 7.6296323,8.6011017 7.2029951,8.7916937 6.6731537,9.028387 6.2215591,9.3304662 5.7792927,9.7456073 5.4231701,10.079886 4.9756368,10.629748 4.7845755,10.9675 c -0.1910591,0.337747 -0.4402546,0.86617 -0.553601,1.174471 -0.1133476,0.308301 -0.1687269,0.447958 -0.1687269,0.469789 0,0.04474 0.049368,0.140233 0.7124028,-0.303267 C 5.0416007,12.129931 5.8000535,11.74256 6.4608171,11.447213 7.1215802,11.151869 8.1547602,10.750457 8.7568267,10.556158 9.3588938,10.361857 10.237059,10.10932 10.707663,9.9948384 11.178268,9.8803526 12.083504,9.6917033 12.719153,9.5757777 13.874883,9.3650001 13.873935,9.3657352 13.34223,9.0464383 13.049791,8.8708275 12.529716,8.6330953 12.186506,8.5182016 11.761726,8.3760014 11.200593,8.2925762 10.428657,8.257943 10.257163,8.2502498 10.084928,8.2464935 9.9158594,8.2458124 Z"
     d="M 9.8158597,8.2458066 C 9.399066,8.2474481 9.0119539,8.26995 8.7352118,8.3103199 8.680628,8.3182823 8.5925396,8.3342243 8.538584,8.3459996 8.194702,8.4210488 7.6787008,8.5892378 7.2942552,8.75203 7.2436491,8.773459 7.1620714,8.809864 7.1120708,8.8333168 6.6499383,9.0500802 6.2462317,9.3204433 5.8528656,9.6776704 5.8119223,9.7148523 5.7465869,9.7761925 5.7072306,9.8149369 5.3942968,10.123005 5.0316267,10.567364 4.835368,10.882278 c -0.02898,0.0465 -0.07288,0.12417 -0.099271,0.172684 -0.1639766,0.301448 -0.3564361,0.708927 -0.4694132,0.993802 -0.020322,0.05124 -0.051151,0.135232 -0.070323,0.187026 -0.047347,0.12791 -0.081988,0.219884 -0.1041919,0.281175 -0.018699,0.05162 -6.405e-4,0.140531 0.045618,0.133284 0.078394,-0.01228 0.2364837,-0.08031 0.5530355,-0.28641 0.046492,-0.03027 0.1210909,-0.0802 0.1682557,-0.108923 0.3035285,-0.184875 0.9339531,-0.505205 1.5113902,-0.767025 0.049838,-0.0226 0.1312125,-0.05897 0.1817777,-0.08118 0.6263385,-0.275124 1.5276086,-0.625448 2.1097117,-0.819417 0.052316,-0.01743 0.1374707,-0.0449 0.1901056,-0.06163 0.555339,-0.176466 1.2985848,-0.390471 1.7586098,-0.506745 0.05351,-0.01352 0.140489,-0.03468 0.194245,-0.047347 0.463604,-0.1092385 1.23128,-0.2690017 1.81593,-0.3776897 0.05428,-0.01009 0.14235,-0.026132 0.19668,-0.036056 0.995163,-0.1817899 1.039078,-0.1998175 0.609853,-0.4601017 -0.04694,-0.028466 -0.123513,-0.074393 -0.17169,-0.101391 C 12.984258,8.844228 12.584901,8.6618419 12.280604,8.5511367 12.228862,8.5323124 12.144082,8.503855 12.091189,8.4879711 11.69802,8.3699014 11.194216,8.2971225 10.528464,8.2627538 c -0.05511,-0.00285 -0.144533,-0.00686 -0.199725,-0.00885 -0.104596,-0.00378 -0.209185,-0.00615 -0.312883,-0.00733 -0.055225,-6.24e-4 -0.1447684,-9.875e-4 -0.1999963,-7.7e-4 z"
     id="path13"
     sodipodi:nodetypes="sscssssssscsssss"
     transform="translate(-3.86309,-8.2457432)" />
  <text
     xml:space="preserve"
     style="font-style:normal;font-variant:normal;font-weight:normal;font-stretch:normal;font-family:'URW Gothic';-inkscape-font-specification:'URW Gothic';text-align:start;writing-mode:lr-tb;direction:ltr;text-anchor:start;fill:#ff9210"
     x="20.386909"
     y="8.4417572"
     id="text3"><tspan
       sodipodi:role="line"
       id="tspan3"
       x="20.386909"
       y="8.4417572" /></text>
</svg>
